<svg width="30" height="30" viewBox="0 0 30 30" fill="none" xmlns="http://www.w3.org/2000/svg">
<g opacity="0.2">
<path d="M9.95833 5.92502C9.95833 5.65759 10.0646 5.40112 10.2537 5.21202C10.4428 5.02292 10.6992 4.91669 10.9667 4.91669H19.0333C19.3008 4.91669 19.5572 5.02292 19.7463 5.21202C19.9354 5.40112 20.0417 5.65759 20.0417 5.92502C20.0417 6.19245 19.9354 6.44892 19.7463 6.63802C19.5572 6.82712 19.3008 6.93335 19.0333 6.93335H10.9667C10.6992 6.93335 10.4428 6.82712 10.2537 6.63802C10.0646 6.44892 9.95833 6.19245 9.95833 5.92502ZM25.0833 9.95835C25.0833 10.2258 24.9771 10.4823 24.788 10.6714C24.5989 10.8605 24.3424 10.9667 24.075 10.9667H22.0583V21.05C22.0583 22.1197 21.6334 23.1456 20.877 23.902C20.1206 24.6584 19.0947 25.0834 18.025 25.0834H11.975C10.9053 25.0834 9.8794 24.6584 9.123 23.902C8.36661 23.1456 7.94167 22.1197 7.94167 21.05V10.9667H5.925C5.65757 10.9667 5.4011 10.8605 5.212 10.6714C5.0229 10.4823 4.91667 10.2258 4.91667 9.95835C4.91667 9.69093 5.0229 9.43445 5.212 9.24535C5.4011 9.05625 5.65757 8.95002 5.925 8.95002H24.075C24.3424 8.95002 24.5989 9.05625 24.788 9.24535C24.9771 9.43445 25.0833 9.69093 25.0833 9.95835ZM20.0417 10.9667H9.95833V21.05C9.95833 21.5849 10.1708 22.0978 10.549 22.476C10.9272 22.8542 11.4401 23.0667 11.975 23.0667H18.025C18.5599 23.0667 19.0728 22.8542 19.451 22.476C19.8292 22.0978 20.0417 21.5849 20.0417 21.05V10.9667ZM12.9833 21.05C13.2508 21.05 13.5072 20.9438 13.6963 20.7547C13.8854 20.5656 13.9917 20.3091 13.9917 20.0417V13.9917C13.9917 13.7243 13.8854 13.4678 13.6963 13.2787C13.5072 13.0896 13.2508 12.9834 12.9833 12.9834C12.7159 12.9834 12.4594 13.0896 12.2703 13.2787C12.0812 13.4678 11.975 13.7243 11.975 13.9917V20.0417C11.975 20.3091 12.0812 20.5656 12.2703 20.7547C12.4594 20.9438 12.7159 21.05 12.9833 21.05ZM17.0167 21.05C17.2841 21.05 17.5406 20.9438 17.7297 20.7547C17.9188 20.5656 18.025 20.3091 18.025 20.0417V13.9917C18.025 13.7243 17.9188 13.4678 17.7297 13.2787C17.5406 13.0896 17.2841 12.9834 17.0167 12.9834C16.7492 12.9834 16.4928 13.0896 16.3037 13.2787C16.1146 13.4678 16.0083 13.7243 16.0083 13.9917V20.0417C16.0083 20.3091 16.1146 20.5656 16.3037 20.7547C16.4928 20.9438 16.7492 21.05 17.0167 21.05Z" fill="#2E2E2E"/>
</g>
</svg>
