<svg width="798" height="92" viewBox="0 0 798 92" fill="none" xmlns="http://www.w3.org/2000/svg">
<mask id="mask0" mask-type="alpha" maskUnits="userSpaceOnUse" x="1" y="1" width="796" height="90">
<rect x="1" y="1" width="796" height="90" rx="8" fill="#F2F2F2"/>
</mask>
<g mask="url(#mask0)">
<rect x="1" y="1" width="796" height="90" rx="8" fill="#F5F5F5"/>
<rect x="1" y="67" width="769" height="28" rx="8" fill="#FFD3C2"/>
<path d="M-168.75 49H-191C-195.418 49 -199 52.5817 -199 57V88.5C-199 92.9183 -195.418 96.5 -191 96.5H847C851.418 96.5 855 92.9183 855 88.5V64.7834C855 60.3521 851.398 56.765 846.967 56.7835L833.033 56.8415C828.602 56.86 825 53.2729 825 48.8416V25C825 20.5817 821.418 17 817 17H797.5C793.082 17 789.5 20.5817 789.5 25V43.5C789.5 47.9183 785.918 51.5 781.5 51.5H758C756.619 51.5 755.5 52.6193 755.5 54C755.5 55.3807 754.381 56.5 753 56.5H726.5C723.739 56.5 721.5 58.7386 721.5 61.5C721.5 64.2614 719.261 66.5 716.5 66.5H690.75C688.955 66.5 687.5 65.0449 687.5 63.25C687.5 61.4551 686.045 60 684.25 60H658.75C655.851 60 653.5 57.6495 653.5 54.75C653.5 51.8505 651.149 49.5 648.25 49.5H626.5C622.634 49.5 619.5 52.634 619.5 56.5C619.5 60.366 616.366 63.5 612.5 63.5H593.5C589.082 63.5 585.5 67.0817 585.5 71.5V76C585.5 80.4183 581.918 84 577.5 84H557.75C554.298 84 551.5 81.2018 551.5 77.75C551.5 74.2982 548.702 71.5 545.25 71.5H521.75C519.403 71.5 517.5 73.4028 517.5 75.75C517.5 78.0972 515.597 80 513.25 80H491.5C487.082 80 483.5 76.4183 483.5 72V52.5C483.5 48.0817 479.918 44.5 475.5 44.5H457.5C453.082 44.5 449.5 48.0817 449.5 52.5V69C449.5 73.4183 445.918 77 441.5 77H420.25C417.627 77 415.5 74.8734 415.5 72.25C415.5 69.6266 413.373 67.5 410.75 67.5H389.5C385.082 67.5 381.5 63.9183 381.5 59.5V33.5C381.5 29.0817 377.918 25.5 373.5 25.5H350.75C348.955 25.5 347.5 26.9551 347.5 28.75C347.5 30.5449 346.045 32 344.25 32H317.75C315.403 32 313.5 30.0972 313.5 27.75C313.5 25.4028 311.597 23.5 309.25 23.5H287.5C283.082 23.5 279.5 19.9183 279.5 15.5V15C279.5 10.5817 275.918 7 271.5 7H254C249.582 7 246 10.5817 246 15V46.5C246 50.9183 242.418 54.5 238 54.5H219.5C215.082 54.5 211.5 50.9183 211.5 46.5V40C211.5 35.5817 207.918 32 203.5 32H180.75C178.955 32 177.5 33.4551 177.5 35.25C177.5 37.0449 176.045 38.5 174.25 38.5H151C146.858 38.5 143.5 41.8579 143.5 46C143.5 50.1421 140.142 53.5 136 53.5H113.5C111.291 53.5 109.5 55.2909 109.5 57.5C109.5 59.7091 107.709 61.5 105.5 61.5H78.5C76.8431 61.5 75.5 60.1569 75.5 58.5C75.5 56.8431 74.1569 55.5 72.5 55.5H44.75C42.9551 55.5 41.5 54.0449 41.5 52.25C41.5 50.4551 40.0449 49 38.25 49H15.5C11.0817 49 7.5 45.4183 7.5 41V28.5C7.5 24.0817 3.91827 20.5 -0.5 20.5H-18.5C-22.9183 20.5 -26.5 24.0817 -26.5 28.5V59C-26.5 63.4183 -30.0817 67 -34.5 67H-57.75C-59.2688 67 -60.5 65.7688 -60.5 64.25C-60.5 62.7312 -61.7312 61.5 -63.25 61.5H-91.5C-93.1569 61.5 -94.5 62.8431 -94.5 64.5C-94.5 66.1569 -95.8431 67.5 -97.5 67.5H-120.5C-124.918 67.5 -128.5 63.9183 -128.5 59.5V48.5C-128.5 44.0817 -132.082 40.5 -136.5 40.5H-160.25C-162.597 40.5 -164.5 42.4028 -164.5 44.75C-164.5 47.0972 -166.403 49 -168.75 49Z" fill="#D7EAE3"/>
<path d="M-166.75 49H-191C-195.418 49 -199 52.5817 -199 57V88.5C-199 92.9183 -195.418 96.5 -191 96.5H847C851.418 96.5 855 92.9183 855 88.5V64.75C855 60.3317 851.418 56.75 847 56.75H833C828.582 56.75 825 53.1683 825 48.75V25C825 20.5817 821.418 17 817 17H797.5C793.082 17 789.5 20.5817 789.5 25V43.5C789.5 47.9183 785.918 51.5 781.5 51.5H758C756.619 51.5 755.5 52.6193 755.5 54C755.5 55.3807 754.381 56.5 753 56.5H726.5C723.739 56.5 721.5 58.7386 721.5 61.5C721.5 64.2614 719.261 66.5 716.5 66.5H690.75C688.955 66.5 687.5 65.0449 687.5 63.25C687.5 61.4551 686.045 60 684.25 60H658.75C655.851 60 653.5 57.6495 653.5 54.75C653.5 51.8505 651.149 49.5 648.25 49.5H626.5C622.634 49.5 619.5 52.634 619.5 56.5C619.5 60.366 616.366 63.5 612.5 63.5H593.5C589.082 63.5 585.5 67.0817 585.5 71.5V76C585.5 80.4183 581.918 84 577.5 84H557.75C554.298 84 551.5 81.2018 551.5 77.75C551.5 74.2982 548.702 71.5 545.25 71.5H521.75C519.403 71.5 517.5 73.4028 517.5 75.75C517.5 78.0972 515.597 80 513.25 80H491.5C487.082 80 483.5 76.4183 483.5 72V52.5C483.5 48.0817 479.918 44.5 475.5 44.5H457.5C453.082 44.5 449.5 48.0817 449.5 52.5V69C449.5 73.4183 445.918 77 441.5 77H420.25C417.627 77 415.5 74.8734 415.5 72.25C415.5 69.6266 413.373 67.5 410.75 67.5H389.5C385.082 67.5 381.5 63.9183 381.5 59.5V33.5C381.5 29.0817 377.918 25.5 373.5 25.5H350.75C348.955 25.5 347.5 26.9551 347.5 28.75C347.5 30.5449 346.045 32 344.25 32H317.75C315.403 32 313.5 30.0972 313.5 27.75C313.5 25.4028 311.597 23.5 309.25 23.5H287.5C283.082 23.5 279.5 19.9183 279.5 15.5V15C279.5 10.5817 275.918 7 271.5 7H254C249.582 7 246 10.5817 246 15V46.5C246 50.9183 242.418 54.5 238 54.5H219.5C215.082 54.5 211.5 50.9183 211.5 46.5V40C211.5 35.5817 207.918 32 203.5 32H180.75C178.955 32 177.5 33.4551 177.5 35.25C177.5 37.0449 176.045 38.5 174.25 38.5H151C146.858 38.5 143.5 41.8579 143.5 46C143.5 50.1421 140.142 53.5 136 53.5H113.5C111.291 53.5 109.5 55.2909 109.5 57.5C109.5 59.7091 107.709 61.5 105.5 61.5H78.5C76.8431 61.5 75.5 60.1569 75.5 58.5C75.5 56.8431 74.1569 55.5 72.5 55.5H44.75C42.9551 55.5 41.5 54.0449 41.5 52.25C41.5 50.4551 40.0449 49 38.25 49H15.5C11.0817 49 7.5 45.4183 7.5 41V28.5C7.5 24.0817 3.91827 20.5 -0.5 20.5H-18.5C-22.9183 20.5 -26.5 24.0817 -26.5 28.5V60C-26.5 64.4183 -30.0817 68 -34.5 68H-57.25C-59.0449 68 -60.5 66.5449 -60.5 64.75C-60.5 62.9551 -61.9551 61.5 -63.75 61.5H-91.5C-93.1569 61.5 -94.5 62.8431 -94.5 64.5C-94.5 66.1569 -95.8431 67.5 -97.5 67.5H-120.5C-124.918 67.5 -128.5 63.9183 -128.5 59.5V48.5C-128.5 44.0817 -132.082 40.5 -136.5 40.5H-158.25C-160.597 40.5 -162.5 42.4028 -162.5 44.75C-162.5 47.0972 -164.403 49 -166.75 49Z" stroke="#167951"/>
<rect opacity="0.5" x="211" width="586" height="91" fill="#FBFBFB"/>
<path opacity="0.7" d="M219.972 37.072C219.324 37.072 218.744 36.9 218.232 36.556C217.728 36.212 217.332 35.72 217.044 35.08C216.764 34.432 216.624 33.672 216.624 32.8C216.624 31.928 216.764 31.172 217.044 30.532C217.332 29.884 217.728 29.388 218.232 29.044C218.744 28.7 219.324 28.528 219.972 28.528C220.62 28.528 221.196 28.7 221.7 29.044C222.212 29.388 222.612 29.884 222.9 30.532C223.188 31.172 223.332 31.928 223.332 32.8C223.332 33.672 223.188 34.432 222.9 35.08C222.612 35.72 222.212 36.212 221.7 36.556C221.196 36.9 220.62 37.072 219.972 37.072ZM219.972 36.28C220.46 36.28 220.888 36.144 221.256 35.872C221.632 35.6 221.924 35.204 222.132 34.684C222.34 34.164 222.444 33.536 222.444 32.8C222.444 32.064 222.34 31.436 222.132 30.916C221.924 30.396 221.632 30 221.256 29.728C220.888 29.456 220.46 29.32 219.972 29.32C219.484 29.32 219.052 29.456 218.676 29.728C218.308 30 218.02 30.396 217.812 30.916C217.604 31.436 217.5 32.064 217.5 32.8C217.5 33.536 217.604 34.164 217.812 34.684C218.02 35.204 218.308 35.6 218.676 35.872C219.052 36.144 219.484 36.28 219.972 36.28ZM224.968 37.06C224.792 37.06 224.64 36.996 224.512 36.868C224.392 36.74 224.332 36.584 224.332 36.4C224.332 36.216 224.392 36.064 224.512 35.944C224.64 35.816 224.792 35.752 224.968 35.752C225.144 35.752 225.296 35.816 225.424 35.944C225.552 36.064 225.616 36.216 225.616 36.4C225.616 36.584 225.552 36.74 225.424 36.868C225.296 36.996 225.144 37.06 224.968 37.06ZM232.531 28.6V29.212L229.015 37H228.079L231.535 29.368H227.215V30.94H226.363V28.6H232.531ZM243.065 28.6V37H242.213V30.28L238.913 35.932H238.493L235.193 30.316V37H234.341V28.6H235.073L238.721 34.828L242.333 28.6H243.065Z" fill="#2E2E2E"/>
<circle cx="211.5" cy="39.5" r="2.5" fill="#808080"/>
<path opacity="0.7" d="M218.952 75.6V84H218.088V76.368H216.108V75.6H218.952ZM224.188 84.072C223.54 84.072 222.96 83.9 222.448 83.556C221.944 83.212 221.548 82.72 221.26 82.08C220.98 81.432 220.84 80.672 220.84 79.8C220.84 78.928 220.98 78.172 221.26 77.532C221.548 76.884 221.944 76.388 222.448 76.044C222.96 75.7 223.54 75.528 224.188 75.528C224.836 75.528 225.412 75.7 225.916 76.044C226.428 76.388 226.828 76.884 227.116 77.532C227.404 78.172 227.548 78.928 227.548 79.8C227.548 80.672 227.404 81.432 227.116 82.08C226.828 82.72 226.428 83.212 225.916 83.556C225.412 83.9 224.836 84.072 224.188 84.072ZM224.188 83.28C224.676 83.28 225.104 83.144 225.472 82.872C225.848 82.6 226.14 82.204 226.348 81.684C226.556 81.164 226.66 80.536 226.66 79.8C226.66 79.064 226.556 78.436 226.348 77.916C226.14 77.396 225.848 77 225.472 76.728C225.104 76.456 224.676 76.32 224.188 76.32C223.7 76.32 223.268 76.456 222.892 76.728C222.524 77 222.236 77.396 222.028 77.916C221.82 78.436 221.716 79.064 221.716 79.8C221.716 80.536 221.82 81.164 222.028 81.684C222.236 82.204 222.524 82.6 222.892 82.872C223.268 83.144 223.7 83.28 224.188 83.28ZM232.274 77.688H233.126V82.704L237.338 77.688H238.094V84H237.242V78.984L233.042 84H232.274V77.688ZM245.84 77.64C246.432 77.64 246.964 77.776 247.436 78.048C247.916 78.32 248.292 78.7 248.564 79.188C248.836 79.676 248.972 80.228 248.972 80.844C248.972 81.46 248.836 82.012 248.564 82.5C248.292 82.988 247.916 83.372 247.436 83.652C246.964 83.924 246.432 84.06 245.84 84.06C245.28 84.06 244.772 83.94 244.316 83.7C243.86 83.452 243.488 83.112 243.2 82.68C242.92 82.248 242.756 81.752 242.708 81.192H241.268V84H240.416V77.688H241.268V80.412H242.72C242.784 79.868 242.956 79.388 243.236 78.972C243.524 78.548 243.892 78.22 244.34 77.988C244.788 77.756 245.288 77.64 245.84 77.64ZM245.84 83.316C246.272 83.316 246.66 83.212 247.004 83.004C247.356 82.796 247.632 82.504 247.832 82.128C248.032 81.752 248.132 81.324 248.132 80.844C248.132 80.364 248.032 79.936 247.832 79.56C247.632 79.184 247.356 78.896 247.004 78.696C246.66 78.488 246.272 78.384 245.84 78.384C245.408 78.384 245.016 78.488 244.664 78.696C244.32 78.896 244.048 79.184 243.848 79.56C243.648 79.936 243.548 80.364 243.548 80.844C243.548 81.324 243.648 81.752 243.848 82.128C244.048 82.504 244.32 82.796 244.664 83.004C245.016 83.212 245.408 83.316 245.84 83.316ZM255.803 77.688V84H254.951V78.444H251.927L251.843 80.004C251.779 81.316 251.627 82.324 251.387 83.028C251.147 83.732 250.719 84.084 250.103 84.084C249.935 84.084 249.731 84.052 249.491 83.988L249.551 83.256C249.695 83.288 249.795 83.304 249.851 83.304C250.179 83.304 250.427 83.152 250.595 82.848C250.763 82.544 250.875 82.168 250.931 81.72C250.987 81.272 251.035 80.68 251.075 79.944L251.183 77.688H255.803ZM262.953 77.688V84H262.173V81.912H260.193H259.953L258.489 84H257.565L259.137 81.792C258.649 81.656 258.273 81.424 258.009 81.096C257.745 80.768 257.613 80.352 257.613 79.848C257.613 79.144 257.853 78.608 258.333 78.24C258.813 77.872 259.469 77.688 260.301 77.688H262.953ZM258.477 79.872C258.477 80.808 259.073 81.276 260.265 81.276H262.173V78.444H260.325C259.093 78.444 258.477 78.92 258.477 79.872Z" fill="#2E2E2E"/>
<rect x="211" width="1" height="91" rx="0.5" fill="#808080"/>
</g>
<rect x="0.5" y="0.5" width="797" height="91" rx="8.5" stroke="#EEEEEE"/>
</svg>
